<?xml version="1.0" encoding="UTF-8" standalone="no"?>
<svg
   xmlns:dc="http://purl.org/dc/elements/1.1/"
   xmlns:cc="http://creativecommons.org/ns#"
   xmlns:rdf="http://www.w3.org/1999/02/22-rdf-syntax-ns#"
   xmlns:svg="http://www.w3.org/2000/svg"
   xmlns="http://www.w3.org/2000/svg"
   viewBox="0 0 666.66669 666.66669"
   height="666.66669"
   width="666.66669"
   xml:space="preserve"
   id="svg2"
   version="1.1"><metadata
     id="metadata8"><rdf:RDF><cc:Work
         rdf:about=""><dc:format>image/svg+xml</dc:format><dc:type
           rdf:resource="http://purl.org/dc/dcmitype/StillImage" /></cc:Work></rdf:RDF></metadata><defs
     id="defs6"><clipPath
       id="clipPath30"
       clipPathUnits="userSpaceOnUse"><path
         id="path28"
         d="M 0,500 H 500 V 0 H 0 Z" /></clipPath></defs><g
     transform="matrix(1.3333333,0,0,-1.3333333,0,666.66667)"
     id="g10"><g
       transform="translate(457.0005,398.7756)"
       id="g12"><path
         id="path14"
         style="fill:#b2b2b2;fill-opacity:1;fill-rule:nonzero;stroke:none"
         d="m 0,0 -207,73.31 v 0.146 -0.073 0.073 -0.146 L -413.87,0 -382.645,-273.501 -207,-370.71 v -0.298 l 0.5,0.149 0.5,-0.149 v 0.298 l 175.209,97.209 z" /></g><g
       transform="translate(249.8622,441)"
       id="g16"><path
         id="path18"
         style="fill:#dc1b17;fill-opacity:1;fill-rule:nonzero;stroke:none"
         d="m 0,0 -177.421,-63.126 26.825,-234.773 150.734,-83.516 v -0.256 l 0.456,0.355 L 0.002,0 Z" /></g><g
       transform="translate(249.8624,440.5453)"
       id="g20"><path
         id="path22"
         style="fill:#a5120e;fill-opacity:1;fill-rule:nonzero;stroke:none"
         d="m 0,0 0.569,-381.088 0.569,-0.128 v 0.255 l 150.221,83.403 26.334,234.66 z" /></g><g
       id="g24"><g
         clip-path="url(#clipPath30)"
         id="g26"><g
           transform="translate(361.8435,238.2776)"
           id="g32"><path
             id="path34"
             style="fill:#dddddd;fill-opacity:1;fill-rule:nonzero;stroke:none"
             d="m 0,0 c 48.183,37.709 39.076,101.591 34.599,114.802 -4.478,13.197 -17.689,30.723 -17.689,8.699 0,-57.815 -44.607,-78.331 -47.624,-75.597 0,0 -33.024,29.878 -57.745,35.861 -7.574,1.823 -15.385,2.879 -23.385,2.893 V -87.278 h 7.23 8.746 14.8 79.381 c 4.067,0 7.843,3.291 7.843,7.368 v 8.747 34.225 c 0,3.228 -0.726,9.18 -1.339,13.19 L 1.308,-7.743 c -1.108,3.919 -1.824,7.305 -1.521,7.524 0,0 -0.056,0 0.213,0.219" /></g><g
           transform="translate(249.8419,324.9376)"
           id="g36"><path
             id="path38"
             style="fill:#ffffff;fill-opacity:1;fill-rule:nonzero;stroke:none"
             d="m 0,0 c -8.066,0 -15.93,-1.064 -23.549,-2.899 -24.728,-5.986 -57.756,-35.864 -57.756,-35.864 -3.019,-2.73 -47.628,21.486 -47.628,75.6 0,22.021 -13.207,4.495 -17.678,-8.699 -4.481,-13.21 -13.591,-77.092 34.598,-114.805 0.273,-0.212 0.273,-0.212 0.273,-0.212 0.296,-0.219 -0.36,-3.605 -1.465,-7.524 l -3.454,-16.005 c -0.62,-4.016 -1.183,-9.962 -1.183,-13.19 v -34.225 -8.747 c 0,-4.077 3.452,-7.368 7.519,-7.368 h 79.371 14.797 8.743 7.57 V -0.003 C 0.158,-0.002 0.051,0 0,0" /></g></g></g></g></svg>